HIERARCHY
ROOT hip
{
	OFFSET 0.000000 0.000000 0.000000 
	CHANNELS 6 Xposition Yposition Zposition Xrotation Zrotation Yrotation
	JOINT abdomen
	{
		OFFSET 0.000000 3.402643 0.000000 
		CHANNELS 3 Xrotation Zrotation Yrotation
		JOINT chest
		{
			OFFSET 0.000000 8.438565 -0.680529 
			CHANNELS 3 Xrotation Zrotation Yrotation
			JOINT neck
			{
				OFFSET 0.000000 10.207942 -0.272212 
				CHANNELS 3 Xrotation Zrotation Yrotation
				JOINT head
				{
					OFFSET 0.000000 3.130431 0.000000 
					CHANNELS 3 Xrotation Zrotation Yrotation
					End Site
					{
						OFFSET 0.000000 3.130435 0.000000 
					}
				}
			}
			JOINT lCollar
			{
				OFFSET 3.470700 6.669187 -0.816635 
				CHANNELS 3 Yrotation Zrotation Xrotation
				JOINT lShldr
				{
					OFFSET 3.198488 0.000000 0.000000 
					CHANNELS 3 Zrotation Yrotation Xrotation
					JOINT lForeArm
					{
						OFFSET 10.139888 0.000000 0.000000 
						CHANNELS 3 Yrotation Zrotation Xrotation
						JOINT lHand
						{
							OFFSET 8.370511 0.000000 0.000000 
							CHANNELS 3 Zrotation Yrotation Xrotation
							End Site
							{
								OFFSET 4.083176 0.000000 0.000000 
							}
						}
					}
				}
			}
			JOINT rCollar
			{
				OFFSET -3.470700 6.669187 -0.816635 
				CHANNELS 3 Yrotation Zrotation Xrotation
				JOINT rShldr
				{
					OFFSET -3.198488 0.000000 0.000000 
					CHANNELS 3 Zrotation Yrotation Xrotation
					JOINT rForeArm
					{
						OFFSET -10.139888 0.000000 0.000000 
						CHANNELS 3 Yrotation Zrotation Xrotation
						JOINT rHand
						{
							OFFSET -8.370511 0.000000 0.000000 
							CHANNELS 3 Zrotation Yrotation Xrotation
							End Site
							{
								OFFSET -4.083176 0.000000 0.000000 
							}
						}
					}
				}
			}
		}
	}
	JOINT lThigh
	{
		OFFSET 5.308129 -1.633274 1.361059 
		CHANNELS 3 Xrotation Zrotation Yrotation
		JOINT lShin
		{
			OFFSET -2.041588 -20.007561 0.000000 
			CHANNELS 3 Xrotation Zrotation Yrotation
			JOINT lFoot
			{
				OFFSET 0.000000 -19.190928 -1.224953 
				CHANNELS 3 Xrotation Yrotation Zrotation
				End Site
				{
					OFFSET 0.000000 -2.449906 4.627600 
				}
			}
		}
	}
	JOINT rThigh
	{
		OFFSET -5.308129 -1.633274 1.361059 
		CHANNELS 3 Xrotation Zrotation Yrotation
		JOINT rShin
		{
			OFFSET 2.041588 -20.007561 0.000000 
			CHANNELS 3 Xrotation Zrotation Yrotation
			JOINT rFoot
			{
				OFFSET 0.000000 -19.190928 -1.224953 
				CHANNELS 3 Xrotation Yrotation Zrotation
				End Site
				{
					OFFSET 0.000000 -2.449906 4.627600 
				}
			}
		}
	}
}
MOTION
Frames: 18
Frame Time: 0.033333
-93.159134 46.009445 34.228634 -26.036263 1.597071 -9.793687 44.858799 4.065827 18.325830 -20.839844 -0.007467 -0.001337 -15.025055 -1.148424 51.268250 -5.806170 -1.925131 0.391980 -6.249050 -0.109138 -0.001707 -8.194173 3.010549 -1.888180 -102.583229 -36.325287 -3.106920 5.626022 10.441145 7.827271 3.250129 0.108978 -0.003601 -1.432267 58.310978 -27.259285 114.713234 24.149626 2.005067 -7.301657 -16.087543 18.264149 9.513535 0.230448 -32.933163 -3.174247 -4.698967 -91.556824 -19.588636 143.266785 198.277908 61.322182 -13.505031 -6.495877 3.591385 1.726649 19.770754 19.498392 1.860545 -6.572330 
-92.718872 46.144501 36.890667 -27.587164 2.900216 -10.840083 45.766617 3.247390 18.526701 -20.839844 -0.007467 -0.001337 -15.700730 -2.248750 49.745316 -5.806170 -1.925131 0.391980 -6.249050 -0.109138 -0.001707 -7.980048 5.601751 0.471905 -93.792313 -39.667885 6.320584 10.739530 6.317658 14.150499 3.250129 0.108978 -0.003601 7.685828 57.964577 -17.230043 112.592377 29.208477 3.536113 -6.293682 -14.189148 21.677298 14.015587 -2.190425 -32.890614 -3.760780 -5.146507 -84.855453 -20.913624 134.682632 199.516800 53.349693 -14.685760 -7.444130 23.856232 -2.974834 18.781414 20.161833 3.588938 -10.135358 
-92.296425 46.419861 39.457947 -28.549358 4.411760 -10.745812 46.468323 2.643780 18.572374 -20.839844 -0.007467 -0.001337 -16.832672 -3.420280 47.589687 -5.806170 -1.925131 0.391980 -6.249050 -0.109138 -0.001707 -7.544103 6.447675 1.964641 -80.848579 -41.386898 18.158361 14.949408 2.213488 18.500700 3.250129 0.108978 -0.003601 16.050192 55.768196 -8.432829 110.279724 33.336174 5.693603 -4.981527 -12.333042 24.800390 18.033840 -6.553725 -34.914391 -2.404853 -1.615887 -73.962532 -23.533247 123.044067 201.709930 44.841228 -15.800510 -7.965350 41.482559 -5.441761 15.384578 15.700126 3.338428 -12.090146 
-91.857742 46.933918 41.845833 -28.536226 5.762400 -9.794880 46.517513 2.888223 18.737373 -20.839844 -0.007467 -0.001337 -17.775682 -5.124382 45.048813 -5.806170 -1.925131 0.391980 -6.249050 -0.109138 -0.001707 -7.345298 5.836256 2.893928 -64.938087 -40.505634 31.457058 18.480940 -1.419834 21.256714 3.250129 0.108978 -0.003601 24.228014 52.497528 -0.695200 107.309967 36.653687 8.364939 -3.128721 -10.999490 27.315529 21.178822 -9.004338 -32.145226 -2.402422 -0.416139 -61.371265 -39.967369 106.618225 218.737457 35.145859 -16.670559 -7.862079 55.187286 -5.971737 11.303926 9.382137 1.734540 -15.063098 
-91.480827 47.309254 44.040081 -27.959904 7.282485 -8.527045 46.156891 2.888164 18.515953 -20.839844 -0.007467 -0.001337 -18.502174 -6.666525 42.425880 -5.806170 -1.925131 0.391980 -6.249050 -0.109138 -0.001707 -7.148473 4.524682 3.609873 -49.673527 -37.109413 43.118462 21.657202 -3.719084 22.461794 3.250129 0.108978 -0.003601 31.370649 48.667389 5.249281 103.035400 39.061741 12.450465 -1.349255 -9.471183 30.049145 19.960972 -6.523537 -31.082268 -1.099087 -11.211815 -59.772461 -28.529230 100.442078 209.378998 24.486515 -17.018990 -6.478176 65.148056 -6.212469 7.066581 3.231855 -1.492360 -18.232887 
-91.223793 47.332294 46.059689 -27.229692 9.382694 -6.865221 45.702236 1.726659 17.321157 -20.839844 -0.007467 -0.001337 -19.176310 -7.379196 39.255447 -5.806170 -1.925131 0.391980 -6.249050 -0.109138 -0.001707 -6.204766 3.204063 4.038381 -37.654758 -32.391811 51.320736 24.596930 -4.501629 22.563446 3.250129 0.108978 -0.003601 37.117802 44.895771 9.168867 97.347618 40.245930 17.861378 -0.162131 -7.755584 32.896126 22.077812 -7.627067 -24.609608 -1.358081 -11.513650 -24.598265 8.972398 55.444103 171.531677 13.592443 -16.376301 -3.666738 71.636383 -7.004207 3.296788 -1.883148 -5.271366 -19.590889 
-90.940071 47.791389 47.919846 -26.297194 10.649362 -3.614807 45.074177 1.953689 16.367729 -20.839844 -0.007467 -0.001337 -19.417147 -7.891736 34.644093 -5.806170 -1.925131 0.391980 -6.249050 -0.109138 -0.001707 -4.847279 1.018477 4.138252 -27.886900 -26.903446 57.076946 26.640909 -4.142021 22.208841 3.250129 0.108978 -0.003601 41.637703 40.791504 11.203139 90.708603 39.949108 23.657423 0.399625 -6.431541 35.193691 27.311855 -13.906675 -36.057297 -2.426225 3.633904 -24.348009 19.671579 61.574646 153.835419 4.570365 -13.797507 -0.310402 71.222809 -7.059238 1.447920 -3.470390 -7.857274 -19.328001 
-90.772026 48.068314 49.708439 -25.543259 12.245355 0.287653 44.516045 1.822726 15.385221 -20.839844 -0.007467 -0.001337 -19.017237 -8.778741 29.145794 -5.806170 -1.925131 0.391980 -6.249050 -0.109138 -0.001707 -3.345805 -2.456711 4.106498 -19.706875 -21.186077 60.991615 26.911358 -2.960183 21.162268 3.250129 0.108978 -0.003601 44.356297 36.632172 11.498995 84.024811 38.566170 28.839302 0.785213 -5.817457 36.713848 28.998684 -13.545613 -36.164143 -2.123916 2.824803 -20.232113 14.063830 54.990341 159.340256 -2.341204 -11.279910 2.914742 66.569885 -7.733381 1.637487 -4.185885 -8.967180 -17.901974 
-90.696121 48.085587 51.471176 -24.778629 13.834823 4.297531 44.027649 1.454642 14.501299 -20.839844 -0.007467 -0.001337 -18.342102 -9.567284 23.714373 -5.806170 -1.925131 0.391980 -6.249050 -0.109138 -0.001707 -1.556583 -6.417041 -1.355552 -10.889879 -17.055340 61.405708 26.490337 -4.906636 25.421700 3.250129 0.108978 -0.003601 45.458832 32.790676 10.493760 78.168907 36.393646 32.999489 1.556229 -5.913431 37.935482 31.667168 -14.111878 -38.338512 -1.788327 5.053354 -18.688871 12.469642 52.135166 160.118805 -7.300688 -9.302466 6.103785 58.484116 -8.857012 3.800214 -4.876333 -8.715961 -16.904387 
-90.698746 48.006023 53.266838 -23.705322 15.504604 7.974727 43.404190 0.178728 13.837024 -20.839844 -0.007467 -0.001337 -17.906364 -9.827918 18.222200 -5.806170 -1.925131 0.391980 -6.249050 -0.109138 -0.001707 0.400422 -10.306038 -10.934620 -2.920575 -12.652977 57.716839 24.900543 -9.638981 34.897972 3.250129 0.108978 -0.003601 45.588760 29.207090 8.506628 73.070847 33.328930 36.214020 2.711687 -6.402145 39.108532 31.518959 -8.790406 -35.488056 -4.389285 -5.832767 -16.984797 6.921079 46.583244 171.486511 -10.219283 -8.346610 9.451810 47.003506 -10.072878 8.619819 -4.957166 -7.307117 -17.444410 
-90.647438 48.057320 55.145111 -22.675915 15.773719 12.533912 42.853706 0.881269 13.847546 -20.839844 -0.007467 -0.001337 -18.156292 -9.727258 12.650072 -5.806170 -1.925131 0.391980 -6.249050 -0.109138 -0.001707 2.670506 -14.071911 -13.882193 0.838022 -7.379011 55.282547 23.149870 -9.265697 34.824371 3.250129 0.108978 -0.003601 44.733761 26.018005 5.916760 68.586731 29.983164 37.970200 3.329310 -7.563348 39.310993 28.705540 -5.588201 -35.142033 4.158740 -14.667946 -93.654358 -173.226669 59.939240 -4.741100 -10.149514 -7.770436 13.166092 31.922529 -9.628095 15.347995 -1.834143 -6.725753 -15.711702 
-90.697174 48.013874 57.121269 -21.664330 16.479044 17.332014 42.560505 0.801427 13.423256 -20.839844 -0.007467 -0.001337 -18.688761 -9.666319 6.746854 -5.806170 -1.925131 0.391980 -6.249050 -0.109138 -0.001707 5.986237 -17.458000 -17.521593 3.159757 -3.741660 51.721909 21.242828 -8.065202 33.716209 3.250129 0.108978 -0.003601 42.966557 23.110994 2.979564 64.393440 26.621695 38.415440 3.170278 -9.141456 38.413906 31.758596 -3.441597 -35.130569 2.009328 -12.839551 -73.798912 22.276525 97.666672 -198.463623 -9.858880 -11.829429 -5.595710 17.740814 -9.049814 14.050627 1.664687 21.707283 -17.120649 
-90.806580 47.890858 59.152405 -20.989162 17.021595 22.528580 42.537060 0.853174 12.900408 -20.839844 -0.007467 -0.001337 -18.700880 -9.561332 0.242484 -5.806170 -1.925131 0.391980 -6.249050 -0.109138 -0.001707 10.261829 -19.537178 -21.963598 1.535440 -1.849038 46.731743 19.099392 -6.529357 31.752911 3.250129 0.108978 -0.003601 41.174694 20.184475 -0.165794 60.134708 22.897423 37.884789 2.599438 -10.560146 36.955421 33.696369 -0.296095 -33.851547 2.669875 -12.741374 -68.299217 -53.455421 85.142532 -121.262550 -8.377862 -12.937396 -4.401311 11.325517 -5.095417 15.929598 1.362014 21.589334 -19.629013 
-90.959953 47.744278 61.247398 -20.702396 17.468430 27.514952 42.755886 0.588630 12.217132 -20.839844 -0.007467 -0.001337 -17.831020 -9.101242 -6.608180 -5.806170 -1.925131 0.391980 -6.249050 -0.109138 -0.001707 16.421051 -23.014265 -28.245937 2.433645 -1.317774 40.862480 16.691336 -4.478251 29.002562 3.250129 0.108978 -0.003601 39.994404 17.786758 -2.940001 55.097969 19.164047 36.232643 1.096814 -12.187311 34.209515 35.839615 3.466020 -30.050489 4.120048 -13.024502 -73.103279 -42.831554 83.877579 -132.169815 -7.428440 -13.293976 -4.039436 11.239691 -3.720374 15.839312 2.473085 20.003963 -20.335098 
-91.156792 47.561058 63.469589 -20.698517 18.366949 31.903486 43.188347 -0.491259 10.997644 -20.839844 -0.007467 -0.001337 -15.997123 -8.425409 -13.183905 -5.806170 -1.925131 0.391980 -6.249050 -0.109138 -0.001707 22.931396 -25.133970 -35.307983 3.287269 -0.934866 33.025032 14.186442 -1.585858 24.883144 3.250129 0.108978 -0.003601 39.389610 16.226786 -5.142261 49.143837 15.711704 33.787159 -1.285858 -14.204783 30.506241 44.169289 6.112796 -21.550577 -4.649221 -4.025618 18.966347 -176.568741 -165.239319 -0.144969 -6.140889 -14.212329 -6.397662 14.474826 -2.799194 14.119495 7.438135 19.867552 -17.852003 
-91.241592 47.850544 65.912178 -21.492979 18.496929 37.256966 43.749458 1.091518 9.584978 -20.839844 -0.007467 -0.001337 -13.512132 -7.555263 -19.309389 -5.806170 -1.925131 0.391980 -6.249050 -0.109138 -0.001707 28.825850 -26.389694 -42.064873 4.043945 -0.124029 24.252699 11.590682 1.491968 19.430710 3.250129 0.108978 -0.003601 38.823521 14.711984 -7.076760 43.062454 12.659060 31.272770 -3.523206 -15.957887 27.227377 42.663715 12.214915 -24.139473 2.683166 -10.471128 -45.370060 -356.688385 52.304546 182.360733 -0.508392 -13.432046 -10.144987 13.029547 -1.552801 9.537905 13.246745 19.857458 -13.476485 
-91.387131 48.048420 68.459984 -21.897444 19.102674 41.628296 44.012459 1.199995 8.234435 -20.839844 -0.007467 -0.001337 -11.206187 -6.554158 -24.812691 -5.806170 -1.925131 0.391980 -6.249050 -0.109138 -0.001707 34.001118 -26.949789 -48.161968 4.500351 0.647569 16.240866 9.303926 3.659525 14.483476 3.250129 0.108978 -0.003601 37.743736 12.412016 -8.908485 37.900158 10.341445 28.796030 -5.108042 -17.212582 24.383226 49.036186 13.285631 -24.020107 -1.884784 0.656264 11.548907 10.863487 1.534413 -173.767532 0.515465 -13.370291 -12.308676 20.263971 0.046924 6.725351 8.346519 19.100611 -11.552404 
-91.509621 48.427418 71.068512 -22.326027 19.545687 44.746075 44.264565 0.504290 7.621813 -20.839844 -0.007467 -0.001337 -9.683241 -5.347691 -29.512415 -5.806170 -1.925131 0.391980 -6.249050 -0.109138 -0.001707 38.103622 -26.675655 -52.729130 2.832602 1.210821 10.519375 8.091603 5.044399 11.461365 3.250129 0.108978 -0.003601 36.521431 9.441486 -10.719110 34.124168 8.565496 26.111683 -5.860058 -18.036802 21.767363 52.986233 18.406387 -17.594019 -5.532070 -3.429850 4.229378 19.861179 15.320313 -164.110046 2.449794 -10.622594 -10.833764 23.458826 -0.001954 4.581913 4.351264 15.702638 -9.995814 
